<svg id="Layer_1" data-name="Layer 1" xmlns="http://www.w3.org/2000/svg" viewBox="0 0 448 93"><defs><style>.cls-1{fill:#bf5700;}.cls-2{fill:#333f48;}</style></defs><title>RGB_formal_Natural_Sciences</title><polygon class="cls-1" points="39.93 38.04 39.97 38.04 39.97 38.02 39.93 38.02 39.93 38.04 39.93 38.04"/><path class="cls-1" d="M45.38,33.5a21.92,21.92,0,0,0-3.19-.34,5.88,5.88,0,0,0-1.39.15l-.23-6.36V25.89a4.34,4.34,0,0,1,1.69-.28,21.6,21.6,0,0,1,3,.31c.95.14,1.92.28,2.92.34l.27,7.6c-1-.06-2.05-.21-3.05-.37Zm-10.85,0c-1,.16-2,.31-3.05.37l.27-7.6c1-.06,2-.2,2.92-.34a21.61,21.61,0,0,1,3-.31,4.34,4.34,0,0,1,1.68.28v1.05L39.1,33.3a5.88,5.88,0,0,0-1.39-.15,21.93,21.93,0,0,0-3.19.34ZM50.68,29V27.56h-.89V25.1h-.6a26.1,26.1,0,0,1-3.77-.37,22.51,22.51,0,0,0-3.15-.32,5.36,5.36,0,0,0-2.31.44,5.37,5.37,0,0,0-2.31-.44,22.53,22.53,0,0,0-3.16.32,26.09,26.09,0,0,1-3.77.37h-.6v2.47h-.89V29h.89v2h-.88v1.45h.88v2.68h.6a26.17,26.17,0,0,0,4-.41,21.1,21.1,0,0,1,3-.33,3.56,3.56,0,0,1,1.66.32h1.16a3.56,3.56,0,0,1,1.66-.32,21.09,21.09,0,0,1,3,.33,26.17,26.17,0,0,0,4,.41h.6V32.41h.88V31h-.88V29Z"/><path class="cls-1" d="M34.69,27l-.18,0c-.57.08-1.14.17-1.72.23l0,1c.64-.07,1.27-.16,1.9-.25h0V27Z"/><path class="cls-1" d="M35.41,26.91v1a13.18,13.18,0,0,1,2.78-.18l0-1a13.78,13.78,0,0,0-2.81.16Z"/><path class="cls-1" d="M34.69,31.42l-.18,0c-.62.09-1.25.18-1.88.25l0,1c.7-.07,1.38-.17,2.06-.27h0v-1Z"/><path class="cls-1" d="M35.41,31.32v1A14.19,14.19,0,0,1,38,32.1l0-1a14.55,14.55,0,0,0-2.66.17Z"/><path class="cls-1" d="M34.54,29.24v1l.11,0a17.6,17.6,0,0,1,3.46-.29l0-1a18.14,18.14,0,0,0-3.61.29Z"/><path class="cls-1" d="M33.82,29.34l-1.11.14,0,1,1.14-.14v-1Z"/><path class="cls-1" d="M44,26.85a12.28,12.28,0,0,0-2.38-.11l0,1a11.61,11.61,0,0,1,2.34.12v-1Z"/><path class="cls-1" d="M47.11,27.27c-.58-.07-1.16-.15-1.72-.23L44.77,27v1l.48.07c.62.09,1.25.18,1.9.25l0-1Z"/><path class="cls-1" d="M43.85,29a12.18,12.18,0,0,0-2.1-.09l0,1a11.25,11.25,0,0,1,2.06.1V29Z"/><path class="cls-1" d="M47.19,29.49c-.61-.07-1.21-.16-1.8-.24l-.82-.12v1l.68.1c.65.1,1.31.19,2,.26l0-1Z"/><path class="cls-1" d="M45.29,32.41c.66.1,1.33.19,2,.26l0-1c-.64-.07-1.26-.16-1.88-.25h-.09v1Z"/><path class="cls-1" d="M44.57,31.33a14.93,14.93,0,0,0-2.74-.19l0,1a14.43,14.43,0,0,1,2.71.2v-1Z"/><path class="cls-1" d="M38.7,46.88l1.25-3.13,1.25,3.13,3.37.22L42,49.27l.83,3.27-2.86-1.8-2.86,1.8.83-3.27-2.6-2.16,3.37-.22Zm-7.63-1.11h0l5.45,4-2.1,6.45a.05.05,0,0,0,0,0h0l5.49-4,5.49,4h0a0,0,0,0,0,0-.06l-2.09-6.43,5.44-4h0a0,0,0,0,0,0-.06,0,0,0,0,0-.06,0H42.08L40,39.28h0a0,0,0,1,0-.09,0h0l-2.08,6.4H31.09a0,0,0,1,0,0,.09Z"/><path class="cls-1" d="M53.46,53.86A3.61,3.61,0,0,1,51.63,55a3.62,3.62,0,0,1,2.73-3,3.61,3.61,0,0,1-.9,1.94Zm-2.63-4.24a3.64,3.64,0,0,1,.36-2.11,3.63,3.63,0,0,1,.53,4,3.62,3.62,0,0,1-.89-1.94Zm1.46-5.51A3.65,3.65,0,0,1,52.52,42a3.64,3.64,0,0,1,.77,4,3.64,3.64,0,0,1-1-1.88Zm3.48,1.61a3.63,3.63,0,0,1-2.05,3.53,3.62,3.62,0,0,1,2.05-3.53ZM50.43,59.41a3.61,3.61,0,0,1-2,.69,3.61,3.61,0,0,1,3.3-2.39,3.63,3.63,0,0,1-1.29,1.71Zm-1.7-4.69a3.65,3.65,0,0,1,.79-2,3.63,3.63,0,0,1-.32,4.07,3.63,3.63,0,0,1-.47-2.08Zm-1.9,4.91a3.61,3.61,0,0,1-1.18,1.78A3.62,3.62,0,0,1,46.8,57.5a3.62,3.62,0,0,1,0,2.13Zm1.1,3.18a3.61,3.61,0,0,1-1.61,1.41,3.57,3.57,0,0,1-1.47.31h0a3.51,3.51,0,0,1-.65-.06,3.62,3.62,0,0,1,3.72-1.66Zm-6.29.29a3.63,3.63,0,0,1,1.52-1.5,3.64,3.64,0,0,1-1.94,3.59,3.63,3.63,0,0,1,.41-2.09Zm-8.14,1.12a3.62,3.62,0,0,1-1.61-1.41,3.62,3.62,0,0,1,3.73,1.66,3.6,3.6,0,0,1-2.12-.25ZM33,59.63a3.61,3.61,0,0,1,0-2.13,3.62,3.62,0,0,1,1.15,3.91A3.61,3.61,0,0,1,33,59.63Zm3.66,2a3.62,3.62,0,0,1,1.94,3.59,3.64,3.64,0,0,1-1.94-3.59Zm-7.27-2.18a3.62,3.62,0,0,1-1.28-1.71,3.62,3.62,0,0,1,3.3,2.39,3.61,3.61,0,0,1-2-.69Zm.92-6.67a3.62,3.62,0,0,1,.32,4.07,3.63,3.63,0,0,1-.32-4.07Zm-3.95,1.12a3.63,3.63,0,0,1-.9-1.94,3.62,3.62,0,0,1,2.74,3,3.61,3.61,0,0,1-1.83-1.09Zm-.25-4.61a3.63,3.63,0,0,1-2.05-3.53,3.62,3.62,0,0,1,2.05,3.53Zm.19-5.37a3.63,3.63,0,0,1,1-1.88,3.63,3.63,0,0,1-.77,4,3.61,3.61,0,0,1-.23-2.12Zm1.45,5.59a3.63,3.63,0,0,1,.89-1.94,3.62,3.62,0,0,1-.53,4,3.6,3.6,0,0,1-.36-2.1Zm25.71.91A4.59,4.59,0,0,0,56.63,45l-.11-.5L56,44.6a4.58,4.58,0,0,0-1.54.8,4.6,4.6,0,0,0-1.82-4.56l-.42-.3L52,41a4.59,4.59,0,0,0,1.17,6.15,4.55,4.55,0,0,0-.35,1.23,4.6,4.6,0,0,0-1.39-2l-.4-.33-.3.42a4.6,4.6,0,0,0,.81,6.23h0a4.59,4.59,0,0,0-.62,1.17,4.58,4.58,0,0,0-1-2.22l-.32-.41-.38.35a4.59,4.59,0,0,0-.49,6.26l0,0a4.52,4.52,0,0,0-.85,1,4.59,4.59,0,0,0-.47-2.37l-.23-.46-.44.26a4.59,4.59,0,0,0-1.77,6v0a4.52,4.52,0,0,0-1,.82,4.59,4.59,0,0,0,0-2.42l-.13-.5-.49.16a4.58,4.58,0,0,0-3,5.42l-.46.32-.46-.32a4.58,4.58,0,0,0-3-5.42L36,60.29l-.13.5a4.59,4.59,0,0,0,0,2.42,4.5,4.5,0,0,0-1-.82v0a4.59,4.59,0,0,0-1.77-6l-.44-.26-.23.46a4.58,4.58,0,0,0-.47,2.37,4.52,4.52,0,0,0-.85-1l0,0a4.59,4.59,0,0,0-.49-6.26l-.38-.35-.32.41a4.59,4.59,0,0,0-1,2.22,4.56,4.56,0,0,0-.62-1.17h0a4.6,4.6,0,0,0,.81-6.23l-.3-.42-.4.33a4.58,4.58,0,0,0-1.39,2,4.48,4.48,0,0,0-.35-1.23A4.59,4.59,0,0,0,27.86,41l-.27-.44-.42.3a4.6,4.6,0,0,0-1.82,4.56,4.58,4.58,0,0,0-1.54-.8l-.49-.15-.11.5a4.59,4.59,0,0,0,3.16,5.42l.44.13a4.62,4.62,0,0,0,.27,1.07,4.53,4.53,0,0,0-2.08-.7l-.51,0v.52A4.59,4.59,0,0,0,28.67,56l.45,0a4.45,4.45,0,0,0,.48,1,4.53,4.53,0,0,0-1.6-.29,5.07,5.07,0,0,0-.58,0l-.51.07.1.5a4.61,4.61,0,0,0,1.81,2.85,4.55,4.55,0,0,0,2.69.87,4.71,4.71,0,0,0,.57,0l.45-.06a4.56,4.56,0,0,0,.68.87A4.59,4.59,0,0,0,31,62l-.49.17.2.47a4.6,4.6,0,0,0,2.36,2.41,4.53,4.53,0,0,0,1.86.4,4.63,4.63,0,0,0,1.51-.25l.36-.12a26.26,26.26,0,0,0,2.21,1.66l-1.42.92.91.56,1.38-.9,1.38.9.91-.56-1.42-.92A26.52,26.52,0,0,0,43,65.11l.36.12a4.62,4.62,0,0,0,1.51.25h0a4.55,4.55,0,0,0,1.86-.39,4.6,4.6,0,0,0,2.36-2.41l.2-.47L48.79,62a4.56,4.56,0,0,0-2.19-.2,4.57,4.57,0,0,0,.68-.87l.45.06a4.72,4.72,0,0,0,.57,0h0A4.55,4.55,0,0,0,51,60.19a4.61,4.61,0,0,0,1.81-2.85l.1-.5-.51-.07a5.09,5.09,0,0,0-.59,0,4.54,4.54,0,0,0-1.6.29,4.55,4.55,0,0,0,.49-1l.45,0a4.59,4.59,0,0,0,4.21-4.65v-.52l-.51,0a4.53,4.53,0,0,0-2.08.7A4.62,4.62,0,0,0,53,50.5l.43-.13Z"/><path class="cls-1" d="M53.59,60.55a25.45,25.45,0,0,1-3.46,4.06,37.15,37.15,0,0,1-10.19,6.51,37.15,37.15,0,0,1-10.19-6.51,25.44,25.44,0,0,1-3.46-4.06c-4.74-6.95-5.37-15-5.37-21.26h0l19-1.06,19,1.06c0,6.26-.63,14.32-5.37,21.26ZM21.94,23.13c3.54-.39,11.48-1.18,18-1.18s14.47.79,18,1.18l1,13.93H21l1-13.93Zm38.95-1.61L60,21.41A196.4,196.4,0,0,0,40,20h0a196.42,196.42,0,0,0-20.09,1.41l-.84.11V37.06h0v2.17c0,6.55.65,15,5.71,22.42a27.4,27.4,0,0,0,3.65,4.3h0l0,0a55,55,0,0,0,11.56,8h0a55,55,0,0,0,11.56-8l0,0h0a27.39,27.39,0,0,0,3.65-4.3c5.06-7.41,5.71-15.87,5.71-22.42v-.31h0V21.52Z"/><path class="cls-2" d="M93.67,60.64,92.88,65A28.92,28.92,0,0,1,85.6,67.3c-5.58,0-10.8-3.78-10.8-10.77s4.65-10.41,11.34-11.31a13.06,13.06,0,0,1,7.17,2.34v4H91.66l-1-2.79a6.84,6.84,0,0,0-5-2c-4.44,0-7.47,3.15-7.47,9,0,4.86,3,9.84,8.22,9.84A6.07,6.07,0,0,0,90.4,64L92,60.64Z"/><path class="cls-2" d="M109.84,59.41c0,4.47-2.73,7-7.38,7.8-4,0-6.69-3.09-6.69-7.17,0-4.5,2.73-7,7.38-7.83C107.13,52.21,109.84,55.33,109.84,59.41Zm-6.63,6.33c2.4,0,3.63-2.46,3.63-5.7,0-3.81-1.83-6.36-4.44-6.36-2.43,0-3.63,2.46-3.63,5.73S100.54,65.74,103.21,65.74Z"/><path class="cls-2" d="M114.49,66.7l-3.45.09-.15-1,2.1-.3V47.38l-2.1.06-.15-1,3.6-.93,1.5-.12v20.1l2.25.3-.15,1Z"/><path class="cls-2" d="M122.59,66.7l-3.45.09-.15-1,2.1-.3V47.38l-2.1.06-.15-1,3.6-.93,1.5-.12v20.1l2.25.3-.15,1Z"/><path class="cls-2" d="M129.88,59.11c0,3.42,1.83,5.85,5,5.85a7.77,7.77,0,0,0,3.75-1.26l.48,1.14a18.3,18.3,0,0,1-5.25,2.37c-3.63,0-6.9-2.58-6.9-7.29,0-4.44,2.67-6.81,6.78-7.71,4,0,5.31,2.49,5.31,5.64v1.26Zm6-1.5c0-2.31-.45-3.9-2.76-3.9-1.83,0-3,1.71-3.24,4.2Z"/><path class="cls-2" d="M151.89,54l1.62-1.83h1.8v2.43h-1.8l-1,.48a3.85,3.85,0,0,1,.3,1.44c0,2.55-1.77,4.35-5.85,5.4a7.26,7.26,0,0,1-1.17-.06l-1.62,1.86a1,1,0,0,0,1.17,1.05h5.49c2.73,0,3.93,1.26,3.93,3.09,0,2.46-3.12,4.86-7.65,6.21-4.35,0-6.54-1.35-6.54-4.14v-.51l3.27-2.52c-2.1-.78-2.25-1.74-2.25-3.12v-.18l3-2.07a4.22,4.22,0,0,1-3.12-4c0-2.55,1.74-4.35,5.85-5.4A5.88,5.88,0,0,1,151.89,54Zm-7,13.17c-1.53,1.68-1.65,2.22-1.65,2.64,0,1.41,1.62,2.49,4.08,2.49s4.56-1.59,4.56-3.6c0-1.08-.81-1.53-2.85-1.53Zm2-13.62c-1.62,0-2.55,1.26-2.55,3.18,0,1.44.63,3.78,3.09,3.78,1.62,0,2.55-1.11,2.55-2.85C150,56.14,149.34,53.59,146.88,53.59Z"/><path class="cls-2" d="M158.4,59.11c0,3.42,1.83,5.85,5,5.85a7.76,7.76,0,0,0,3.75-1.26l.48,1.14a18.31,18.31,0,0,1-5.25,2.37c-3.63,0-6.9-2.58-6.9-7.29,0-4.44,2.67-6.81,6.78-7.71,4,0,5.31,2.49,5.31,5.64v1.26Zm6-1.5c0-2.31-.45-3.9-2.76-3.9-1.83,0-3,1.71-3.24,4.2Z"/><path class="cls-2" d="M191,59.41c0,4.47-2.73,7-7.38,7.8-4,0-6.69-3.09-6.69-7.17,0-4.5,2.73-7,7.38-7.83C188.28,52.21,191,55.33,191,59.41Zm-6.63,6.33c2.4,0,3.63-2.46,3.63-5.7,0-3.81-1.83-6.36-4.44-6.36-2.43,0-3.63,2.46-3.63,5.73S181.68,65.74,184.35,65.74Z"/><path class="cls-2" d="M197.73,53h3.75v1.41h-3.75V65.44l3.45.21L201,66.79l-4.65-.09-3.45.09-.15-1,2.1-.3V54.37h-2.64v-.51l.9-1h1.74v-.3a5.82,5.82,0,0,1,1.65-4.2l2.52-2.85h3.78v2.4h-3.9l-.57.81c-.42.57-.63,1.44-.63,3.39Z"/><path class="cls-2" d="M216,65.35l2.55.39-.15,1-3.21-.09-3.69.09-.15-1,2.7-.39v-18l-2.58-.6.15-1.05,2.79.09,2.25-.09,10.5,14.85.63,1.77V47.17l-2.55-.39.15-1.05,3.21.09,3.69-.09.15,1.05-2.7.39V66.82h-1.89L216.54,50.5,216,48.43Z"/><path class="cls-2" d="M238.68,52.21c3.78,0,4.74,1,4.74,4.77v5.88a3.65,3.65,0,0,0,.51,2.25h1.5l.12,1-3.87.75-.93-2.31-3.57,2.61c-2.58,0-4.41-1.44-4.41-3.84a4.39,4.39,0,0,1,1-2.76l6.75-2.25v-1.5c0-1.8-.15-2.88-1.77-2.88a7.2,7.2,0,0,0-2.46.54l-.51,2.37h-2.58V54.61Zm1.89,7.35-4.35,1.8a2.28,2.28,0,0,0-.6,1.68c0,1.53.87,2.07,1.74,2.07a3.56,3.56,0,0,0,2-.78l1.26-.87Z"/><path class="cls-2" d="M245.55,54.37v-.51l1-1h2v-2l1.95-1.95h.78V53h4.53v1.35h-4.5v8.79c0,.87.33,1.8,1.59,1.8a5.05,5.05,0,0,0,2.37-.72l.51,1-3.51,2c-3.36,0-3.81-1.2-3.81-3.9V54.37Z"/><path class="cls-2" d="M270.87,62.86a4.9,4.9,0,0,0,.36,2.25h1.5l.12,1-3.87.75-.84-2.43-4.35,2.73c-4,0-4.62-1.41-4.62-4.89V54.49l-2.1.15-.15-1.17,3.6-.78,1.5-.12v10c0,1.56.66,2.25,2.13,2.25a7.3,7.3,0,0,0,3.27-1.5l.6-.39V54.49l-1.8.15-.15-1.17,3.3-.78,1.5-.12Z"/><path class="cls-2" d="M278.76,56.56l3.42-4.2h2.4v3h-2.22a6.84,6.84,0,0,0-2.85,2.13l-.6.72v7.14l3.15.3-.15,1.14-4.35-.09-3.36.09-.15-1,2.1-.3V54.49l-2.1.18-.15-1.05,3.6-.93,1.2-.09Z"/><path class="cls-2" d="M292,52.21c3.78,0,4.74,1,4.74,4.77v5.88a3.65,3.65,0,0,0,.51,2.25h1.5l.12,1-3.87.75-.93-2.31-3.57,2.61c-2.58,0-4.41-1.44-4.41-3.84a4.4,4.4,0,0,1,1-2.76l6.75-2.25v-1.5c0-1.8-.15-2.88-1.77-2.88a7.19,7.19,0,0,0-2.46.54l-.51,2.37h-2.58V54.61Zm1.89,7.35-4.35,1.8a2.28,2.28,0,0,0-.6,1.68c0,1.53.87,2.07,1.74,2.07a3.55,3.55,0,0,0,1.95-.78l1.26-.87Z"/><path class="cls-2" d="M303.66,66.7l-3.45.09-.15-1,2.1-.3V47.38l-2.1.06-.15-1,3.6-.93,1.5-.12v20.1l2.25.3-.15,1Z"/><path class="cls-2" d="M319.26,63.76a5.61,5.61,0,0,0,4.23,1.89c2.58,0,4.08-1.62,4.08-3.81s-1.32-3.21-3.12-4l-3.63-1.59c-2.16-.93-3.93-2.31-3.93-5,0-3.27,3-5.19,7.17-6.06A9.62,9.62,0,0,1,329.55,47v4h-1.5l-.87-2.73a4.45,4.45,0,0,0-3.54-1.47c-2.37,0-3.78,1.29-3.78,3.3,0,1.65,1.17,2.67,2.82,3.39l3.45,1.5c2.37,1,4.44,2.52,4.41,5.58,0,2.82-1.92,5.55-7.56,6.72a9.35,9.35,0,0,1-6.21-2l-.66-4h2.1Z"/><path class="cls-2" d="M340.74,54.28A2.56,2.56,0,0,0,339,53.8c-2,0-3.6,2.28-3.6,5.55S337.14,65,340.08,65a6.55,6.55,0,0,0,3.39-1.26l.48,1.14a16.87,16.87,0,0,1-4.89,2.37c-3.84,0-6.69-2.52-6.69-7.14s3.45-7,7.14-7.86a7.15,7.15,0,0,1,4.14,1.5v3h-2.22Z"/><path class="cls-2" d="M349.8,66.7l-3.45.09-.15-1,2.1-.3V54.49l-2.1.18-.15-1.05,3.6-.93,1.5-.12V65.44l2.25.3-.15,1Zm-1.5-20.64,2.16-.15.84.15.15,1.68-.33,1.44-2.13.18-.81-.18L348,47.5Z"/><path class="cls-2" d="M357.24,59.11c0,3.42,1.83,5.85,5,5.85A7.77,7.77,0,0,0,366,63.7l.48,1.14a18.29,18.29,0,0,1-5.25,2.37c-3.63,0-6.9-2.58-6.9-7.29,0-4.44,2.67-6.81,6.78-7.71,4,0,5.31,2.49,5.31,5.64v1.26Zm6-1.5c0-2.31-.45-3.9-2.76-3.9-1.83,0-3,1.71-3.24,4.2Z"/><path class="cls-2" d="M371.85,66.7l-3.45.09-.15-1,2.1-.3V54.49l-2.1.18-.15-1.05,3.6-.93L373,52.6l.15,2.52,4.44-2.91c3.84,0,4.47,1.29,4.47,4.89v8.34l2.28.3-.15,1-3.45-.09-2.88.09-.15-1,1.5-.3V56.86c0-1.56-.69-2.25-2-2.25A6.08,6.08,0,0,0,374.1,56l-.9.6v8.88l1.65.3-.15,1Z"/><path class="cls-2" d="M393.51,54.28a2.56,2.56,0,0,0-1.74-.48c-2,0-3.6,2.28-3.6,5.55S389.91,65,392.85,65a6.55,6.55,0,0,0,3.39-1.26l.48,1.14a16.89,16.89,0,0,1-4.89,2.37c-3.84,0-6.69-2.52-6.69-7.14s3.45-7,7.14-7.86a7.15,7.15,0,0,1,4.14,1.5v3H394.2Z"/><path class="cls-2" d="M401.46,59.11c0,3.42,1.83,5.85,5,5.85a7.77,7.77,0,0,0,3.75-1.26l.48,1.14a18.3,18.3,0,0,1-5.25,2.37c-3.63,0-6.9-2.58-6.9-7.29,0-4.44,2.67-6.81,6.78-7.71,4,0,5.31,2.49,5.31,5.64v1.26Zm6-1.5c0-2.31-.45-3.9-2.76-3.9-1.83,0-3,1.71-3.24,4.2Z"/><path class="cls-2" d="M420.72,54.34a4.66,4.66,0,0,0-2.28-.66c-1.17,0-2.28.63-2.28,1.77,0,1,.75,1.56,2.1,2.25l2.31,1.17c2,1,2.82,2.16,2.82,3.87,0,2.7-2.19,3.72-5.64,4.47a10.28,10.28,0,0,1-4.56-1.35l-.57-3.39h1.92l1,2.49a4.51,4.51,0,0,0,2.46.75,2.19,2.19,0,0,0,2.4-2.28c0-1.17-.63-1.68-2.19-2.49l-2.37-1.23a4.05,4.05,0,0,1-2.52-3.48c0-2.1,2-3.27,5.43-4A8,8,0,0,1,423,53.56v3h-1.59Z"/><path class="cls-1" d="M90.94,37.07l-1.88.06-.1-.7,1-.2V30.51c0-1-.48-1.5-1.28-1.5a4.82,4.82,0,0,0-2.12.9l-.6.38v5.94l1.1.2-.1.7L85,37.07l-2.1.06-.1-.7,1.2-.2V24l-.72.12-4.06-.06V36.17l2.3.26-.1.7-3.24-.06-3.36.06-.1-.7,2.4-.26V24.05l-3,.06-.92,2.5h-.78V23.07l5.74,0,4.92,0,2.14-.24h.68v6.48l2.92-1.9c2.56,0,3,1,3,3.5v5.32l1.5.2-.1.7Z"/><path class="cls-1" d="M96.14,32c0,2.28,1.22,3.9,3.32,3.9a5.18,5.18,0,0,0,2.5-.84l.32.76a12.21,12.21,0,0,1-3.5,1.58,4.54,4.54,0,0,1-4.6-4.86c0-3,1.78-4.54,4.52-5.14,2.64,0,3.54,1.66,3.54,3.76V32Zm4-1c0-1.54-.3-2.6-1.84-2.6-1.22,0-2,1.14-2.16,2.8Z"/><path class="cls-1" d="M116.06,23.79l.1-.7,2.56.06,2.34-.06.1.7-1.7.26v8.16c0,2.6-1.06,4.34-5,5.26-3.94,0-5.34-2.12-5.34-5.3V24.05l-1.8-.26.1-.7,2.76.06,2.74-.06.1.7-1.7.26v8.42c0,2.48,1.06,3.9,3.34,3.9,2.08,0,3.24-1.4,3.24-4V24.05Z"/><path class="cls-1" d="M123.86,37.07l-2.3.06-.1-.7,1.4-.2v-7.3l-1.4.12-.1-.7,2.4-.62.86-.06.1,1.68,3-1.94c2.56,0,3,.86,3,3.26v5.56l1.52.2-.1.7-2.3-.06-1.92.06-.1-.7,1-.2V30.51c0-1-.46-1.5-1.32-1.5a4,4,0,0,0-2.08.9l-.6.4v5.92l1.1.2-.1.7Z"/><path class="cls-1" d="M135.32,37.07l-2.3.06-.1-.7,1.4-.2v-7.3l-1.4.12-.1-.7,2.4-.62,1-.08v8.58l1.5.2-.1.7Zm-1-13.76,1.44-.1.56.1.1,1.12-.22,1-1.42.12-.54-.12-.12-1.12Z"/><path class="cls-1" d="M143.34,35.83l2.42-7.24-.92-.2.1-.7,1.76.06,1.66-.06.1.7-1.28.2-3.28,8.22-1.46.6L139,28.59l-1.24-.2.1-.7,2.3.06,2.1-.06.1.7-1.32.2,2.18,5.86Z"/><path class="cls-1" d="M150.42,32c0,2.28,1.22,3.9,3.32,3.9a5.18,5.18,0,0,0,2.5-.84l.32.76a12.19,12.19,0,0,1-3.5,1.58,4.53,4.53,0,0,1-4.6-4.86c0-3,1.78-4.54,4.52-5.14,2.64,0,3.54,1.66,3.54,3.76V32Zm4-1c0-1.54-.3-2.6-1.84-2.6-1.22,0-2,1.14-2.16,2.8Z"/><path class="cls-1" d="M161,30.31l2.28-2.8h1.6v2H163.4a4.57,4.57,0,0,0-1.9,1.42l-.4.48v4.76l2.1.2-.1.76-2.9-.06-2.24.06-.1-.7,1.4-.2v-7.3l-1.4.12-.1-.7,2.4-.62.8-.06Z"/><path class="cls-1" d="M171.18,28.83a3.11,3.11,0,0,0-1.52-.44c-.78,0-1.52.42-1.52,1.18s.5,1,1.4,1.5l1.54.78c1.34.68,1.88,1.44,1.88,2.58,0,1.8-1.46,2.48-3.76,3a6.86,6.86,0,0,1-3-.9l-.38-2.26h1.28l.68,1.66a3,3,0,0,0,1.64.5,1.46,1.46,0,0,0,1.6-1.52c0-.78-.42-1.12-1.46-1.66l-1.58-.82a2.7,2.7,0,0,1-1.68-2.32c0-1.4,1.3-2.18,3.62-2.68a5.35,5.35,0,0,1,2.82.9v2h-1.06Z"/><path class="cls-1" d="M176.7,37.07l-2.3.06-.1-.7,1.4-.2v-7.3l-1.4.12-.1-.7,2.4-.62,1-.08v8.58l1.5.2-.1.7Zm-1-13.76,1.44-.1.56.1.1,1.12-.22,1-1.42.12-.54-.12-.12-1.12Z"/><path class="cls-1" d="M186.62,41.82v-2h1.72l2-3-.8.24-3.36-8.42h-3v6.1c0,.58.22,1.2,1.06,1.2a4.22,4.22,0,0,0,1.76-.56l.34.68-2.52,1.38c-2.24,0-2.54-.8-2.54-2.6v-6h-1.94v-.34l.7-.7h1.3v-1.3l1.3-1.3h.52v2.5h6.3l.1.68-1.32.2,2.22,5.86.16,1.38,2.48-7.24-.92-.2.1-.7,1.76.06,1.66-.06.1.7-1.28.2-3.24,8.18-2.24,5Z"/><path class="cls-1" d="M208.94,32.21c0,3-1.82,4.7-4.92,5.2a4.46,4.46,0,0,1-4.46-4.78c0-3,1.82-4.7,4.92-5.22A4.48,4.48,0,0,1,208.94,32.21Zm-4.42,4.22c1.6,0,2.42-1.64,2.42-3.8,0-2.54-1.22-4.24-3-4.24s-2.42,1.64-2.42,3.82S202.74,36.43,204.52,36.43Z"/><path class="cls-1" d="M213.44,27.91h2.5v.94h-2.5v7.38l2.3.14-.1.76-3.1-.06-2.3.06-.1-.7,1.4-.2V28.85h-1.76v-.34l.6-.7h1.16v-.2a3.88,3.88,0,0,1,1.1-2.8l1.68-1.9h2.52v1.6h-2.6l-.38.54a3.77,3.77,0,0,0-.42,2.26Z"/><path class="cls-1" d="M231.24,37.13,228,37.07l-3.36.06-.1-.7,2.4-.26V24.05l-3,0L223,26.63h-.78V23.09l5.74.06,5.76-.06v3.54H233L232,24.09l-3,0V36.17l2.3.26Z"/><path class="cls-1" d="M234.79,32c0,2.28,1.22,3.9,3.32,3.9a5.18,5.18,0,0,0,2.5-.84l.32.76a12.19,12.19,0,0,1-3.5,1.58,4.53,4.53,0,0,1-4.6-4.86c0-3,1.78-4.54,4.52-5.14,2.64,0,3.54,1.66,3.54,3.76V32Zm4-1c0-1.54-.3-2.6-1.84-2.6-1.22,0-2,1.14-2.16,2.8Z"/><path class="cls-1" d="M245.46,36.43l-.1.7-1.56-.06-2.06.06-.1-.7,1.4-.2,3-3.64-2.9-4-1.24-.2.1-.72,2.3.06,1.9-.06.1.72-.78.2L247,30.83l.16.52,1.9-2.74-1-.2.1-.72,1.56.06,2.06-.06.1.72-1.44.2-2.64,3.2,3.14,4.42,1.24.2-.1.7-2.3-.06-1.9.06-.1-.7.82-.2-1.78-2.58-.16-.46-2.12,3Z"/><path class="cls-1" d="M256.79,27.41c2.52,0,3.16.64,3.16,3.18v3.92a2.44,2.44,0,0,0,.34,1.5h1l.08.7-2.58.5-.62-1.54-2.38,1.74c-1.72,0-2.94-1-2.94-2.56a2.94,2.94,0,0,1,.7-1.84l4.5-1.5v-1c0-1.2-.1-1.92-1.18-1.92a4.81,4.81,0,0,0-1.64.36l-.34,1.58h-1.72V29Zm1.26,4.9-2.9,1.2a1.53,1.53,0,0,0-.4,1.12c0,1,.58,1.38,1.16,1.38a2.37,2.37,0,0,0,1.3-.52l.84-.58Z"/><path class="cls-1" d="M267.58,28.83a3.12,3.12,0,0,0-1.52-.44c-.78,0-1.52.42-1.52,1.18s.5,1,1.4,1.5l1.54.78c1.34.68,1.88,1.44,1.88,2.58,0,1.8-1.46,2.48-3.76,3a6.85,6.85,0,0,1-3-.9l-.38-2.26h1.28l.68,1.66a3,3,0,0,0,1.64.5,1.46,1.46,0,0,0,1.6-1.52c0-.78-.42-1.12-1.46-1.66l-1.58-.82a2.7,2.7,0,0,1-1.68-2.32c0-1.4,1.3-2.18,3.62-2.68a5.35,5.35,0,0,1,2.82.9v2H268Z"/><path class="cls-1" d="M279.44,27.41c2.52,0,3.16.64,3.16,3.18v3.92a2.44,2.44,0,0,0,.34,1.5h1l.08.7-2.58.5-.62-1.54-2.38,1.74c-1.72,0-2.94-1-2.94-2.56a2.93,2.93,0,0,1,.7-1.84l4.5-1.5v-1c0-1.2-.1-1.92-1.18-1.92a4.79,4.79,0,0,0-1.64.36l-.34,1.58h-1.72V29Zm1.26,4.9-2.9,1.2a1.52,1.52,0,0,0-.4,1.12c0,1,.58,1.38,1.16,1.38a2.37,2.37,0,0,0,1.3-.52l.84-.58Z"/><path class="cls-1" d="M283.91,28.85v-.34l.7-.7h1.3v-1.3l1.3-1.3h.52V28h3v.9h-3v5.86c0,.58.22,1.2,1.06,1.2a3.38,3.38,0,0,0,1.58-.48l.34.68-2.34,1.3c-2.24,0-2.54-.8-2.54-2.6v-6Z"/><path class="cls-1" d="M299.2,32.43l-1.3,3.74,1.74.26-.1.7-2.4-.06-2.14.06-.1-.7,1.56-.22,5-13,1.2-.34,5.22,13.3,1.56.22-.1.7-2.76-.06-2.64.06-.1-.7,1.7-.26-1.36-3.74Zm2.66-6.22-.14-1.08-2.2,6.36h4.26Z"/><path class="cls-1" d="M317.9,34.51a3.28,3.28,0,0,0,.24,1.5h1l.08.7-2.58.5-.56-1.62-2.9,1.82c-2.64,0-3.08-.94-3.08-3.26V28.93l-1.4.1-.1-.78,2.4-.52,1-.08v6.66c0,1,.44,1.5,1.42,1.5a4.87,4.87,0,0,0,2.18-1l.4-.26V28.93l-1.2.1-.1-.78,2.2-.52,1-.08Z"/><path class="cls-1" d="M325.52,28.83a3.12,3.12,0,0,0-1.52-.44c-.78,0-1.52.42-1.52,1.18s.5,1,1.4,1.5l1.54.78c1.34.68,1.88,1.44,1.88,2.58,0,1.8-1.46,2.48-3.76,3a6.85,6.85,0,0,1-3-.9l-.38-2.26h1.28l.68,1.66a3,3,0,0,0,1.64.5,1.46,1.46,0,0,0,1.6-1.52c0-.78-.42-1.12-1.46-1.66l-1.58-.82a2.7,2.7,0,0,1-1.68-2.32c0-1.4,1.3-2.18,3.62-2.68a5.35,5.35,0,0,1,2.82.9v2H326Z"/><path class="cls-1" d="M327.93,28.85v-.34l.7-.7h1.3v-1.3l1.3-1.3h.52V28h3v.9h-3v5.86c0,.58.22,1.2,1.06,1.2a3.38,3.38,0,0,0,1.58-.48l.34.68-2.34,1.3c-2.24,0-2.54-.8-2.54-2.6v-6Z"/><path class="cls-1" d="M338.31,37.07l-2.3.06-.1-.7,1.4-.2v-7.3l-1.4.12-.1-.7,2.4-.62,1-.08v8.58l1.5.2-.1.7Zm-1-13.76,1.44-.1.56.1.1,1.12-.22,1-1.42.12-.54-.12-.12-1.12Z"/><path class="cls-1" d="M344,37.07l-2.3.06-.1-.7,1.4-.2v-7.3l-1.4.12-.1-.7,2.4-.62.86-.06.1,1.68,3-1.94c2.56,0,3,.86,3,3.26v5.56l1.52.2-.1.7-2.3-.06-1.92.06-.1-.7,1-.2V30.51c0-1-.46-1.5-1.32-1.5a4.05,4.05,0,0,0-2.08.9l-.6.4v5.92l1.1.2-.1.7Z"/></svg>