<svg id="Layer_1" data-name="Layer 1" xmlns="http://www.w3.org/2000/svg" viewBox="0 0 490.32 73.39"><defs><style>.cls-1{fill:#005f86;}.cls-2{fill:#bf5700;}</style></defs><title>Quest_RGB</title><path class="cls-1" d="M76.17,19.92a9,9,0,0,1,5.39-5.47,13.41,13.41,0,0,1,8.86,0,9.1,9.1,0,0,1,3.3,2.14,9.32,9.32,0,0,1,2.06,3.33,12.52,12.52,0,0,1,.72,4.35A13.08,13.08,0,0,1,96,28.06a9.64,9.64,0,0,1-1.52,3.06A8.69,8.69,0,0,1,92,33.31a9.9,9.9,0,0,1-3.26,1.24,4.7,4.7,0,0,0,.17,1.35,2.27,2.27,0,0,0,.48.88,1.74,1.74,0,0,0,.75.49,3.09,3.09,0,0,0,1,.14A2.34,2.34,0,0,0,93,36.67a3.05,3.05,0,0,0,.64-2.06h2a5.57,5.57,0,0,1-.46,2.33,4.62,4.62,0,0,1-1.26,1.67,5.38,5.38,0,0,1-1.9,1,8.28,8.28,0,0,1-2.4.33A8.9,8.9,0,0,1,87,39.58a5.71,5.71,0,0,1-2-1,4.65,4.65,0,0,1-1.27-1.68,5.6,5.6,0,0,1-.46-2.27A10,10,0,0,1,80,33.33a8.65,8.65,0,0,1-2.45-2.22A9.84,9.84,0,0,1,76,28.06a12.91,12.91,0,0,1-.53-3.79A12.52,12.52,0,0,1,76.17,19.92Zm5,7.84A9,9,0,0,0,82,30.5a4.62,4.62,0,0,0,1.55,1.8,4.92,4.92,0,0,0,4.89,0A4.51,4.51,0,0,0,90,30.5a9.24,9.24,0,0,0,.8-2.74A24.36,24.36,0,0,0,91,24.27a24.4,24.4,0,0,0-.23-3.48A9.43,9.43,0,0,0,90,18a4.49,4.49,0,0,0-1.53-1.82,4.92,4.92,0,0,0-4.89,0A4.59,4.59,0,0,0,82,18a9.14,9.14,0,0,0-.81,2.77A24.4,24.4,0,0,0,81,24.27,24.36,24.36,0,0,0,81.18,27.76Z"/><path class="cls-1" d="M111,20.62h1.62V31.92a2,2,0,0,0,.07.55.72.72,0,0,0,.25.36,1.3,1.3,0,0,0,.49.22,6.32,6.32,0,0,0,.82.14v1.22q-1.55,0-3,.09t-3,.34V33.45a8.1,8.1,0,0,1-1,.54,11.64,11.64,0,0,1-1.09.44,7.93,7.93,0,0,1-1.15.3,6.31,6.31,0,0,1-1.15.11,7.66,7.66,0,0,1-1.61-.17,3.57,3.57,0,0,1-2.55-2,5.34,5.34,0,0,1-.42-2.3V25.05a1.05,1.05,0,0,0-.17-.67.68.68,0,0,0-.56-.2h-.87V23.05l4.43-2.43h1.62v9.82a2.45,2.45,0,0,0,.14.89,1.52,1.52,0,0,0,1,.94,2.44,2.44,0,0,0,.75.11,3.76,3.76,0,0,0,1.33-.24,7.42,7.42,0,0,0,1.27-.63V25.05a1.05,1.05,0,0,0-.17-.67.72.72,0,0,0-.59-.2h-.87V23.05Z"/><path class="cls-1" d="M119.94,27.35v.36a7.25,7.25,0,0,0,.84,3.87,3,3,0,0,0,2.75,1.31,3.89,3.89,0,0,0,2.38-.83,6.54,6.54,0,0,0,1.88-2.38l1.59.9a10.28,10.28,0,0,1-1.06,1.74A6.66,6.66,0,0,1,127,33.67a5.83,5.83,0,0,1-1.75.87,7.55,7.55,0,0,1-2.23.3,9.12,9.12,0,0,1-3.21-.53,6.79,6.79,0,0,1-2.39-1.48,6.41,6.41,0,0,1-1.5-2.26,7.67,7.67,0,0,1-.52-2.86,7.57,7.57,0,0,1,.52-2.84,6.68,6.68,0,0,1,1.46-2.25,6.59,6.59,0,0,1,2.26-1.48,7.76,7.76,0,0,1,2.91-.53,8,8,0,0,1,2.77.44,5.5,5.5,0,0,1,2,1.27,5.32,5.32,0,0,1,1.25,2A7.78,7.78,0,0,1,129,27h-9A2.72,2.72,0,0,0,119.94,27.35Zm.89-4.31a4.16,4.16,0,0,0-.77,2.06h4.72a3.12,3.12,0,0,0-.59-2,1.93,1.93,0,0,0-1.58-.73A2.17,2.17,0,0,0,120.83,23Z"/><path class="cls-1" d="M135.52,24.39a3.42,3.42,0,0,0,.93.59,10.56,10.56,0,0,0,1.31.49l1.51.48a15.65,15.65,0,0,1,1.51.59,5.65,5.65,0,0,1,1.31.81,3.85,3.85,0,0,1,.93,1.14,3.3,3.3,0,0,1,.35,1.59,4.26,4.26,0,0,1-1.74,3.53,5.89,5.89,0,0,1-1.9.93,8.36,8.36,0,0,1-2.35.32,8.14,8.14,0,0,1-1.32-.11,10.24,10.24,0,0,1-1.25-.28,8.71,8.71,0,0,1-1.09-.4,5.14,5.14,0,0,1-.83-.46l-.35.81h-1.1l-1-4.75,1-.26A8.44,8.44,0,0,0,132.64,31a8.18,8.18,0,0,0,1.47,1.17,6.63,6.63,0,0,0,1.56.71,5.38,5.38,0,0,0,1.55.24A3.15,3.15,0,0,0,138,33a2.12,2.12,0,0,0,.66-.3,1.37,1.37,0,0,0,.6-1.17,1.16,1.16,0,0,0-.36-.86,3.4,3.4,0,0,0-1-.63,9.78,9.78,0,0,0-1.35-.5q-.76-.22-1.56-.49t-1.56-.6a5.82,5.82,0,0,1-1.35-.82,3.83,3.83,0,0,1-1-1.15,3.33,3.33,0,0,1-.36-1.61,3.53,3.53,0,0,1,.43-1.73,4.2,4.2,0,0,1,1.19-1.35,5.92,5.92,0,0,1,1.78-.88,7.26,7.26,0,0,1,2.18-.32,7.68,7.68,0,0,1,1.31.1,6.71,6.71,0,0,1,1.06.27,5.42,5.42,0,0,1,.85.38c.25.14.49.29.71.44l.35-.75h1.07l.87,4.23-1.07.32a7.92,7.92,0,0,0-1-1.46,6.75,6.75,0,0,0-1.19-1,5.22,5.22,0,0,0-1.25-.64,3.77,3.77,0,0,0-1.22-.22,2,2,0,0,0-1.3.37,1.2,1.2,0,0,0-.44,1A1.07,1.07,0,0,0,135.52,24.39Z"/><path class="cls-1" d="M152.68,34.51l-.8.15-.85.11q-.43,0-.84,0a8.33,8.33,0,0,1-1.85-.19,3.49,3.49,0,0,1-1.4-.64,2.92,2.92,0,0,1-.89-1.22,5,5,0,0,1-.31-1.89v-8h-1.59V21.78A6.74,6.74,0,0,0,147,19.85a7.58,7.58,0,0,0,1.51-3.17h1.65v4.37h3.19v1.85h-3.19v8a2.2,2.2,0,0,0,.42,1.53,1.51,1.51,0,0,0,1.14.44,4.82,4.82,0,0,0,.83-.08,4.17,4.17,0,0,0,.79-.21v1.77A7.13,7.13,0,0,1,152.68,34.51Z"/><path class="cls-1" d="M169.9,32.08a10.29,10.29,0,0,0,2-1,12.66,12.66,0,0,0,1.91-1.43,13.5,13.5,0,0,0,1.64-1.77l1,.61-2.81,5.88h-15V33.19a10.82,10.82,0,0,0,1.14-.14,1.54,1.54,0,0,0,.7-.3,1.09,1.09,0,0,0,.35-.59,4.16,4.16,0,0,0,.09-1V17.38a4.25,4.25,0,0,0-.09-1,1.06,1.06,0,0,0-.35-.59,1.59,1.59,0,0,0-.7-.3,10.82,10.82,0,0,0-1.14-.14V14.13h9.7v1.22a10.82,10.82,0,0,0-1.14.14,1.59,1.59,0,0,0-.7.3,1.06,1.06,0,0,0-.35.59,4.25,4.25,0,0,0-.09,1V31.57a.82.82,0,0,0,.87.87h.87A6.37,6.37,0,0,0,169.9,32.08Z"/><path class="cls-1" d="M181.73,27.35v.36a7.24,7.24,0,0,0,.84,3.87,3,3,0,0,0,2.75,1.31,3.89,3.89,0,0,0,2.38-.83,6.53,6.53,0,0,0,1.88-2.38l1.59.9a10.28,10.28,0,0,1-1.06,1.74,6.66,6.66,0,0,1-1.36,1.35,5.83,5.83,0,0,1-1.75.87,7.55,7.55,0,0,1-2.23.3,9.11,9.11,0,0,1-3.21-.53,6.79,6.79,0,0,1-2.39-1.48,6.41,6.41,0,0,1-1.5-2.26,7.67,7.67,0,0,1-.52-2.86,7.57,7.57,0,0,1,.52-2.84,6.69,6.69,0,0,1,1.46-2.25,6.58,6.58,0,0,1,2.26-1.48,7.76,7.76,0,0,1,2.91-.53,8,8,0,0,1,2.77.44,5.5,5.5,0,0,1,2,1.27,5.31,5.31,0,0,1,1.25,2,7.8,7.8,0,0,1,.42,2.64h-9A2.83,2.83,0,0,0,181.73,27.35Zm.89-4.31a4.16,4.16,0,0,0-.77,2.06h4.72a3.12,3.12,0,0,0-.59-2,1.93,1.93,0,0,0-1.58-.73A2.17,2.17,0,0,0,182.62,23Z"/><path class="cls-1" d="M202.87,34.67a2.92,2.92,0,0,1-.89-.3,2.13,2.13,0,0,1-.67-.56,2.1,2.1,0,0,1-.39-.85c-.31.23-.64.46-1,.67a9.13,9.13,0,0,1-1.12.59,7.14,7.14,0,0,1-1.24.41,5.69,5.69,0,0,1-1.31.15,5.09,5.09,0,0,1-1.61-.24,3.7,3.7,0,0,1-1.23-.67,2.93,2.93,0,0,1-.79-1,3.22,3.22,0,0,1-.28-1.35,3.38,3.38,0,0,1,.34-1.53,4.06,4.06,0,0,1,.94-1.22,6.45,6.45,0,0,1,1.41-.94,12.46,12.46,0,0,1,1.75-.71q.94-.3,2-.54t2.06-.42V24.76a9.39,9.39,0,0,0-.06-1.14,1.88,1.88,0,0,0-.23-.75,1,1,0,0,0-.47-.41,2,2,0,0,0-.77-.13,1.86,1.86,0,0,0-1.32.46,3.45,3.45,0,0,0-.83,1.48,2.53,2.53,0,0,1-.89,1.32,2.32,2.32,0,0,1-1.37.41,1.65,1.65,0,0,1-1.19-.44,1.79,1.79,0,0,1-.46-1.35,2.43,2.43,0,0,1,.49-1.46,4,4,0,0,1,1.35-1.14,7.81,7.81,0,0,1,2.06-.73,12.27,12.27,0,0,1,2.61-.26,9.68,9.68,0,0,1,2.11.22,5.19,5.19,0,0,1,1.77.73,3.68,3.68,0,0,1,1.21,1.34,4.27,4.27,0,0,1,.45,2v6.69a1.38,1.38,0,0,0,.2.85.7.7,0,0,0,.58.25,2.17,2.17,0,0,0,.37,0,1.74,1.74,0,0,0,.47-.17V34a4.58,4.58,0,0,1-1.3.55,7,7,0,0,1-1.68.17A6.21,6.21,0,0,1,202.87,34.67Zm-3.13-2.78a5.25,5.25,0,0,0,1.09-.61V27.8a15.28,15.28,0,0,0-1.6.4,5.18,5.18,0,0,0-1.23.55,2.53,2.53,0,0,0-.8.77,1.88,1.88,0,0,0-.28,1,1.43,1.43,0,0,0,.47,1.19,1.74,1.74,0,0,0,1.12.38A3.22,3.22,0,0,0,199.75,31.89Z"/><path class="cls-1" d="M219.87,23.91a2.17,2.17,0,0,1-.43.72,1.82,1.82,0,0,1-.64.45,2,2,0,0,1-.77.15,1.86,1.86,0,0,1-1-.23,2.59,2.59,0,0,1-.59-.51L216,24a.7.7,0,0,0-.56-.24,1.78,1.78,0,0,0-.78.19,2.05,2.05,0,0,0-.72.62v7.39a2,2,0,0,0,.07.55.72.72,0,0,0,.25.36,1.3,1.3,0,0,0,.49.22,6.32,6.32,0,0,0,.82.14v1.22h-7.67V33.19a6.3,6.3,0,0,0,.8-.14,1.3,1.3,0,0,0,.49-.22.77.77,0,0,0,.25-.36,1.78,1.78,0,0,0,.07-.55V25.05a1,1,0,0,0-.17-.67.69.69,0,0,0-.56-.2h-.9V23.05l4.43-2.43h1.62v1.71a5.24,5.24,0,0,1,.73-.68,5,5,0,0,1,.88-.54,5.31,5.31,0,0,1,1-.35,3.89,3.89,0,0,1,1-.13,2.69,2.69,0,0,1,1.86.62,2.16,2.16,0,0,1,.69,1.7A2.74,2.74,0,0,1,219.87,23.91Z"/><path class="cls-1" d="M229.55,33.19a6.64,6.64,0,0,0,.81-.14,1.29,1.29,0,0,0,.5-.22.72.72,0,0,0,.25-.36,2,2,0,0,0,.07-.55V25a2.43,2.43,0,0,0-.14-.89,1.52,1.52,0,0,0-1-.94,2.44,2.44,0,0,0-.75-.11,4.08,4.08,0,0,0-1.36.22,5.29,5.29,0,0,0-1.25.64v8a2,2,0,0,0,.07.55.72.72,0,0,0,.25.36,1.3,1.3,0,0,0,.49.22,6.32,6.32,0,0,0,.82.14v1.22h-7.67V33.19a6.3,6.3,0,0,0,.8-.14,1.3,1.3,0,0,0,.49-.22.77.77,0,0,0,.25-.36,1.78,1.78,0,0,0,.07-.55V25.05a1,1,0,0,0-.17-.67.69.69,0,0,0-.56-.2h-.9V23.05l4.43-2.43h1.62V22a10.34,10.34,0,0,1,1-.54,9.45,9.45,0,0,1,1.09-.46,8.55,8.55,0,0,1,1.15-.31,5.9,5.9,0,0,1,1.14-.12,7.76,7.76,0,0,1,1.61.17,3.67,3.67,0,0,1,1.48.67,3.61,3.61,0,0,1,1.07,1.38,5.43,5.43,0,0,1,.41,2.29v6.78a1.78,1.78,0,0,0,.07.55.77.77,0,0,0,.25.36,1.3,1.3,0,0,0,.49.22,6.3,6.3,0,0,0,.8.14v1.22h-7.67Z"/><path class="cls-1" d="M238.17,33.19a6.3,6.3,0,0,0,.8-.14,1.3,1.3,0,0,0,.49-.22.77.77,0,0,0,.25-.36,1.78,1.78,0,0,0,.07-.55V25.05a1,1,0,0,0-.17-.67.69.69,0,0,0-.56-.2h-.9V23.05l4.43-2.43h1.62V31.92a2,2,0,0,0,.07.55.72.72,0,0,0,.25.36,1.3,1.3,0,0,0,.49.22,6.32,6.32,0,0,0,.82.14v1.22h-7.67Zm1.53-17.66a2.3,2.3,0,0,1,.49-.78,2.47,2.47,0,0,1,.8-.55,2.75,2.75,0,0,1,1.11-.21,2.67,2.67,0,0,1,1.09.21,2.56,2.56,0,0,1,.81.55,2.34,2.34,0,0,1,.51.78,2.41,2.41,0,0,1,.17.89,2.31,2.31,0,0,1-.17.88,2.28,2.28,0,0,1-.51.76,2.52,2.52,0,0,1-.81.54,2.77,2.77,0,0,1-1.09.2,2.85,2.85,0,0,1-1.11-.2,2.44,2.44,0,0,1-.8-.54,2.24,2.24,0,0,1-.49-.76,2.38,2.38,0,0,1-.17-.88A2.49,2.49,0,0,1,239.7,15.53Z"/><path class="cls-1" d="M255.72,33.19a6.64,6.64,0,0,0,.81-.14,1.29,1.29,0,0,0,.5-.22.72.72,0,0,0,.25-.36,2,2,0,0,0,.07-.55V25a2.43,2.43,0,0,0-.14-.89,1.52,1.52,0,0,0-1-.94,2.44,2.44,0,0,0-.75-.11,4.08,4.08,0,0,0-1.36.22,5.29,5.29,0,0,0-1.25.64v8a2,2,0,0,0,.07.55.72.72,0,0,0,.25.36,1.3,1.3,0,0,0,.49.22,6.32,6.32,0,0,0,.82.14v1.22H246.8V33.19a6.3,6.3,0,0,0,.8-.14,1.3,1.3,0,0,0,.49-.22.77.77,0,0,0,.25-.36,1.78,1.78,0,0,0,.07-.55V25.05a1,1,0,0,0-.17-.67.69.69,0,0,0-.56-.2h-.9V23.05l4.43-2.43h1.62V22a10.34,10.34,0,0,1,1-.54,9.45,9.45,0,0,1,1.09-.46,8.55,8.55,0,0,1,1.15-.31,5.9,5.9,0,0,1,1.14-.12,7.76,7.76,0,0,1,1.61.17,3.67,3.67,0,0,1,1.48.67,3.61,3.61,0,0,1,1.07,1.38,5.43,5.43,0,0,1,.41,2.29v6.78a1.78,1.78,0,0,0,.07.55.77.77,0,0,0,.25.36,1.3,1.3,0,0,0,.49.22,6.3,6.3,0,0,0,.8.14v1.22h-7.67Z"/><path class="cls-1" d="M278.93,20.86a1.61,1.61,0,0,1-.31.49,1.42,1.42,0,0,1-.48.33,1.48,1.48,0,0,1-.6.12,1.23,1.23,0,0,1-.59-.12,2.77,2.77,0,0,1-.38-.25l-.33-.25a.76.76,0,0,0-.44-.12,1.06,1.06,0,0,0-.87.49,4.49,4.49,0,0,1,1,.83,4.42,4.42,0,0,1,.7,1,4.52,4.52,0,0,1,.39,1.07,4.93,4.93,0,0,1,.12,1.09,4.65,4.65,0,0,1-.42,2,4.4,4.4,0,0,1-1.21,1.56,5.81,5.81,0,0,1-1.93,1,8.25,8.25,0,0,1-2.56.37,11.22,11.22,0,0,1-1.24-.07,6.12,6.12,0,0,1-1.11-.22,1.47,1.47,0,0,0-1,.11.57.57,0,0,0-.32.5.48.48,0,0,0,.29.41,3,3,0,0,0,.94.28q.65.11,1.69.17l2.55.12a13.36,13.36,0,0,1,2.63.33,5.14,5.14,0,0,1,1.78.76,3,3,0,0,1,1,1.21,4,4,0,0,1,.32,1.64,3.39,3.39,0,0,1-.57,2,4.52,4.52,0,0,1-1.57,1.4,8.13,8.13,0,0,1-2.35.83,14.43,14.43,0,0,1-2.9.28,18.64,18.64,0,0,1-2.43-.16,9,9,0,0,1-2.17-.54,4.32,4.32,0,0,1-1.56-1,2.27,2.27,0,0,1-.62-1.58,2,2,0,0,1,.41-1.28,3.23,3.23,0,0,1,1.09-.83,2.68,2.68,0,0,1-1.11-1,3.24,3.24,0,0,1-.37-1.63,2.86,2.86,0,0,1,.61-1.89,2.93,2.93,0,0,1,1.59-1,4.67,4.67,0,0,1-1.33-1.61,4.58,4.58,0,0,1-.46-2.06,4.65,4.65,0,0,1,.42-2A4.35,4.35,0,0,1,266.58,22a5.9,5.9,0,0,1,1.93-1,8.3,8.3,0,0,1,2.57-.37h.45l.53,0,.54.06a4,4,0,0,1,.49.09,7.19,7.19,0,0,1,.78-.85,5.59,5.59,0,0,1,.94-.71,5,5,0,0,1,1.08-.49,4,4,0,0,1,1.19-.18,2.68,2.68,0,0,1,.75.1,2,2,0,0,1,.63.3,1.44,1.44,0,0,1,.43.51,1.59,1.59,0,0,1,.16.73A1.62,1.62,0,0,1,278.93,20.86Zm-9,14.81q-.85-.08-1.58-.2a1.81,1.81,0,0,0-.75.47,1,1,0,0,0-.27.69,1.16,1.16,0,0,0,.23.69,2,2,0,0,0,.71.58,4.57,4.57,0,0,0,1.23.41,9.2,9.2,0,0,0,1.8.15,8.24,8.24,0,0,0,1.67-.14,4.94,4.94,0,0,0,1.15-.37,1.91,1.91,0,0,0,.67-.5.89.89,0,0,0,.22-.55.78.78,0,0,0-.64-.84,5.06,5.06,0,0,0-1-.17q-.63-.06-1.6-.09T269.91,35.67Zm-.4-7.71a1.7,1.7,0,0,0,1.57.8,1.67,1.67,0,0,0,1.55-.8,4.81,4.81,0,0,0,.48-2.42,4.82,4.82,0,0,0-.48-2.4,1.66,1.66,0,0,0-1.55-.81,1.69,1.69,0,0,0-1.57.81,4.77,4.77,0,0,0-.49,2.4A4.76,4.76,0,0,0,269.51,28Z"/><path class="cls-1" d="M303,27.48a12.61,12.61,0,0,1-1.32,2.4q.26.68.51,1.22a4.34,4.34,0,0,0,.56.91,2.2,2.2,0,0,0,.7.57,2.07,2.07,0,0,0,.95.2,7.54,7.54,0,0,0,1.06-.07,9.59,9.59,0,0,0,1-.19V34a3.56,3.56,0,0,1-.64.33,6.69,6.69,0,0,1-.82.27,7.85,7.85,0,0,1-1.93.25,8,8,0,0,1-2.8-.44,5.36,5.36,0,0,1-2-1.3,11.75,11.75,0,0,1-3,1.3,12.89,12.89,0,0,1-3.41.44,8.26,8.26,0,0,1-2.62-.39,5.81,5.81,0,0,1-2-1.11,4.91,4.91,0,0,1-1.27-1.72,5.39,5.39,0,0,1-.45-2.22,5.8,5.8,0,0,1,.45-2.35,6.52,6.52,0,0,1,1.19-1.83,9.25,9.25,0,0,1,1.7-1.43,22.67,22.67,0,0,1,2-1.17,10.81,10.81,0,0,1-1-1,5.75,5.75,0,0,1-.7-1,4.58,4.58,0,0,1-.43-1.09,5.17,5.17,0,0,1-.14-1.26,4.14,4.14,0,0,1,.36-1.68A4.49,4.49,0,0,1,290,15.15a5.28,5.28,0,0,1,1.71-1,6.31,6.31,0,0,1,2.32-.4,6.56,6.56,0,0,1,2.11.31,4.31,4.31,0,0,1,1.52.86,3.59,3.59,0,0,1,.92,1.3,4.16,4.16,0,0,1,.31,1.61,3.71,3.71,0,0,1-.25,1.38,4.41,4.41,0,0,1-.66,1.13,5.88,5.88,0,0,1-1,.94q-.54.43-1.15.83a13,13,0,0,1,1.39,1,13.54,13.54,0,0,1,1.32,1.31A14.89,14.89,0,0,1,299.76,26,17.49,17.49,0,0,1,300.87,28a8.41,8.41,0,0,0,.68-1.74,7.11,7.11,0,0,0,.25-1.85,3,3,0,0,0-.17-1.09,1.44,1.44,0,0,0-.47-.64,1.69,1.69,0,0,0-.74-.3,7.25,7.25,0,0,0-1-.09V20.91h7v1.36a5.43,5.43,0,0,0-1,.11,1.81,1.81,0,0,0-.76.35,2,2,0,0,0-.55.74,4.56,4.56,0,0,0-.34,1.23A13,13,0,0,1,303,27.48Zm-7.07,4.58a7,7,0,0,0,1.3-.47s0,0,0-.06q-.64-1.32-1.2-2.4t-1.1-2q-.54-.88-1.06-1.59a12.71,12.71,0,0,0-1.09-1.29,6.2,6.2,0,0,0-1.27,1.65,4.69,4.69,0,0,0-.49,2.23,4.22,4.22,0,0,0,1,3,3.48,3.48,0,0,0,2.64,1A5.42,5.42,0,0,0,295.9,32.07Zm-3.81-13.23a2.8,2.8,0,0,0,.41.77,4.28,4.28,0,0,0,.65.7A8.48,8.48,0,0,0,294,21a11.84,11.84,0,0,0,1.12-.67,5.69,5.69,0,0,0,.89-.73,3.08,3.08,0,0,0,.59-.83,2.21,2.21,0,0,0,.21-1,2.62,2.62,0,0,0-.16-.92,2,2,0,0,0-.47-.74,2.15,2.15,0,0,0-.77-.49,2.89,2.89,0,0,0-1-.17,2.66,2.66,0,0,0-.91.16,2.39,2.39,0,0,0-.79.47,2.3,2.3,0,0,0-.56.77,2.53,2.53,0,0,0-.21,1.06A2.85,2.85,0,0,0,292.09,18.84Z"/><path class="cls-1" d="M330,31.31a4.55,4.55,0,0,0,.41.85,2.33,2.33,0,0,0,.47.55,1.82,1.82,0,0,0,.56.32,3.88,3.88,0,0,0,.7.17v1.22h-9.21V33.19A7.52,7.52,0,0,0,324,33a1.34,1.34,0,0,0,.62-.3.66.66,0,0,0,.2-.51,2.65,2.65,0,0,0-.2-.83l-1-2.61h-7.27l-1,2.61a1.72,1.72,0,0,0-.17.81.77.77,0,0,0,.28.52,1.62,1.62,0,0,0,.7.3,8.79,8.79,0,0,0,1.11.16v1.22H311V33.19a4.58,4.58,0,0,0,.77-.17,1.91,1.91,0,0,0,.61-.32,2.18,2.18,0,0,0,.48-.54,4.36,4.36,0,0,0,.4-.83l6.63-17.2h3.5Zm-7.18-4.49-2.87-7.39-2.87,7.39Z"/><path class="cls-1" d="M337.34,24.39a3.42,3.42,0,0,0,.93.59,10.52,10.52,0,0,0,1.31.49l1.51.48a15.72,15.72,0,0,1,1.51.59,5.63,5.63,0,0,1,1.31.81,3.85,3.85,0,0,1,.93,1.14,3.31,3.31,0,0,1,.35,1.59,4.26,4.26,0,0,1-1.74,3.53,5.89,5.89,0,0,1-1.9.93,8.36,8.36,0,0,1-2.35.32,8.12,8.12,0,0,1-1.32-.11,10.27,10.27,0,0,1-1.25-.28,8.71,8.71,0,0,1-1.09-.4,5.1,5.1,0,0,1-.83-.46l-.35.81h-1.1l-1-4.75,1-.26A8.47,8.47,0,0,0,334.46,31a8.18,8.18,0,0,0,1.47,1.17,6.6,6.6,0,0,0,1.56.71,5.38,5.38,0,0,0,1.55.24,3.14,3.14,0,0,0,.83-.1,2.13,2.13,0,0,0,.66-.3,1.38,1.38,0,0,0,.44-.49,1.41,1.41,0,0,0,.16-.67,1.16,1.16,0,0,0-.36-.86,3.42,3.42,0,0,0-1-.63,9.74,9.74,0,0,0-1.35-.5q-.76-.22-1.56-.49t-1.56-.6a5.8,5.8,0,0,1-1.35-.82,3.85,3.85,0,0,1-1-1.15,3.32,3.32,0,0,1-.36-1.61,3.53,3.53,0,0,1,.43-1.73,4.2,4.2,0,0,1,1.19-1.35,5.92,5.92,0,0,1,1.78-.88,7.26,7.26,0,0,1,2.18-.32,7.69,7.69,0,0,1,1.31.1,6.71,6.71,0,0,1,1.06.27,5.39,5.39,0,0,1,.85.38c.25.14.49.29.71.44l.35-.75h1.07l.87,4.23-1.07.32a7.92,7.92,0,0,0-1-1.46,6.75,6.75,0,0,0-1.19-1,5.22,5.22,0,0,0-1.25-.64,3.76,3.76,0,0,0-1.22-.22,2,2,0,0,0-1.3.37,1.2,1.2,0,0,0-.44,1A1.07,1.07,0,0,0,337.34,24.39Z"/><path class="cls-1" d="M351.26,24.39a3.42,3.42,0,0,0,.93.59,10.52,10.52,0,0,0,1.31.49l1.51.48a15.72,15.72,0,0,1,1.51.59,5.63,5.63,0,0,1,1.31.81,3.85,3.85,0,0,1,.93,1.14,3.31,3.31,0,0,1,.35,1.59,4.26,4.26,0,0,1-1.74,3.53,5.89,5.89,0,0,1-1.9.93,8.36,8.36,0,0,1-2.35.32,8.12,8.12,0,0,1-1.32-.11,10.27,10.27,0,0,1-1.25-.28,8.71,8.71,0,0,1-1.09-.4,5.1,5.1,0,0,1-.83-.46l-.35.81h-1.1l-1-4.75,1-.26A8.47,8.47,0,0,0,348.38,31a8.18,8.18,0,0,0,1.47,1.17,6.6,6.6,0,0,0,1.56.71,5.38,5.38,0,0,0,1.55.24,3.14,3.14,0,0,0,.83-.1,2.13,2.13,0,0,0,.66-.3,1.38,1.38,0,0,0,.44-.49,1.41,1.41,0,0,0,.16-.67,1.16,1.16,0,0,0-.36-.86,3.42,3.42,0,0,0-1-.63,9.74,9.74,0,0,0-1.35-.5q-.76-.22-1.56-.49t-1.56-.6a5.8,5.8,0,0,1-1.35-.82,3.85,3.85,0,0,1-1-1.15,3.32,3.32,0,0,1-.36-1.61,3.53,3.53,0,0,1,.43-1.73,4.2,4.2,0,0,1,1.19-1.35,5.92,5.92,0,0,1,1.78-.88,7.26,7.26,0,0,1,2.18-.32,7.69,7.69,0,0,1,1.31.1,6.71,6.71,0,0,1,1.06.27,5.39,5.39,0,0,1,.85.38c.25.14.49.29.71.44l.35-.75h1.07l.87,4.23-1.07.32a7.92,7.92,0,0,0-1-1.46,6.75,6.75,0,0,0-1.19-1,5.22,5.22,0,0,0-1.25-.64,3.76,3.76,0,0,0-1.22-.22,2,2,0,0,0-1.3.37,1.2,1.2,0,0,0-.44,1A1.07,1.07,0,0,0,351.26,24.39Z"/><path class="cls-1" d="M364.8,27.35v.36a7.24,7.24,0,0,0,.84,3.87,3,3,0,0,0,2.75,1.31,3.89,3.89,0,0,0,2.38-.83,6.53,6.53,0,0,0,1.88-2.38l1.59.9a10.28,10.28,0,0,1-1.06,1.74,6.66,6.66,0,0,1-1.36,1.35,5.83,5.83,0,0,1-1.75.87,7.55,7.55,0,0,1-2.23.3,9.11,9.11,0,0,1-3.21-.53,6.79,6.79,0,0,1-2.39-1.48,6.41,6.41,0,0,1-1.5-2.26,7.67,7.67,0,0,1-.52-2.86,7.57,7.57,0,0,1,.52-2.84,6.69,6.69,0,0,1,1.46-2.25,6.58,6.58,0,0,1,2.26-1.48,7.76,7.76,0,0,1,2.91-.53,8,8,0,0,1,2.77.44,5.5,5.5,0,0,1,2,1.27,5.31,5.31,0,0,1,1.25,2,7.8,7.8,0,0,1,.42,2.64h-9A2.83,2.83,0,0,0,364.8,27.35Zm.89-4.31a4.16,4.16,0,0,0-.77,2.06h4.72a3.12,3.12,0,0,0-.59-2,1.93,1.93,0,0,0-1.58-.73A2.17,2.17,0,0,0,365.69,23Z"/><path class="cls-1" d="M380.38,24.39a3.42,3.42,0,0,0,.93.59,10.52,10.52,0,0,0,1.31.49l1.51.48a15.72,15.72,0,0,1,1.51.59,5.63,5.63,0,0,1,1.31.81,3.85,3.85,0,0,1,.93,1.14,3.31,3.31,0,0,1,.35,1.59,4.26,4.26,0,0,1-1.74,3.53,5.89,5.89,0,0,1-1.9.93,8.36,8.36,0,0,1-2.35.32,8.12,8.12,0,0,1-1.32-.11,10.27,10.27,0,0,1-1.25-.28,8.71,8.71,0,0,1-1.09-.4,5.1,5.1,0,0,1-.83-.46l-.35.81h-1.1l-1-4.75,1-.26A8.47,8.47,0,0,0,377.5,31,8.18,8.18,0,0,0,379,32.18a6.6,6.6,0,0,0,1.56.71,5.38,5.38,0,0,0,1.55.24,3.14,3.14,0,0,0,.83-.1,2.13,2.13,0,0,0,.66-.3,1.38,1.38,0,0,0,.44-.49,1.41,1.41,0,0,0,.16-.67,1.16,1.16,0,0,0-.36-.86,3.42,3.42,0,0,0-1-.63,9.74,9.74,0,0,0-1.35-.5q-.76-.22-1.56-.49t-1.56-.6a5.8,5.8,0,0,1-1.35-.82,3.85,3.85,0,0,1-1-1.15,3.32,3.32,0,0,1-.36-1.61,3.53,3.53,0,0,1,.43-1.73,4.2,4.2,0,0,1,1.19-1.35,5.92,5.92,0,0,1,1.78-.88,7.26,7.26,0,0,1,2.18-.32,7.69,7.69,0,0,1,1.31.1,6.71,6.71,0,0,1,1.06.27,5.39,5.39,0,0,1,.85.38c.25.14.49.29.71.44l.35-.75h1.07l.87,4.23-1.07.32a7.92,7.92,0,0,0-1-1.46,6.75,6.75,0,0,0-1.19-1,5.22,5.22,0,0,0-1.25-.64,3.76,3.76,0,0,0-1.22-.22,2,2,0,0,0-1.3.37,1.2,1.2,0,0,0-.44,1A1.07,1.07,0,0,0,380.38,24.39Z"/><path class="cls-1" d="M394.3,24.39a3.42,3.42,0,0,0,.93.59,10.52,10.52,0,0,0,1.31.49l1.51.48a15.72,15.72,0,0,1,1.51.59,5.63,5.63,0,0,1,1.31.81,3.85,3.85,0,0,1,.93,1.14,3.31,3.31,0,0,1,.35,1.59,4.26,4.26,0,0,1-1.74,3.53,5.89,5.89,0,0,1-1.9.93,8.36,8.36,0,0,1-2.35.32,8.12,8.12,0,0,1-1.32-.11,10.27,10.27,0,0,1-1.25-.28,8.71,8.71,0,0,1-1.09-.4,5.1,5.1,0,0,1-.83-.46l-.35.81h-1.1l-1-4.75,1-.26A8.47,8.47,0,0,0,391.42,31a8.18,8.18,0,0,0,1.47,1.17,6.6,6.6,0,0,0,1.56.71,5.38,5.38,0,0,0,1.55.24,3.14,3.14,0,0,0,.83-.1,2.13,2.13,0,0,0,.66-.3,1.38,1.38,0,0,0,.44-.49,1.41,1.41,0,0,0,.16-.67,1.16,1.16,0,0,0-.36-.86,3.42,3.42,0,0,0-1-.63,9.74,9.74,0,0,0-1.35-.5q-.76-.22-1.56-.49t-1.56-.6a5.8,5.8,0,0,1-1.35-.82,3.85,3.85,0,0,1-1-1.15,3.32,3.32,0,0,1-.36-1.61,3.53,3.53,0,0,1,.43-1.73,4.2,4.2,0,0,1,1.19-1.35,5.92,5.92,0,0,1,1.78-.88,7.26,7.26,0,0,1,2.18-.32,7.69,7.69,0,0,1,1.31.1,6.71,6.71,0,0,1,1.06.27,5.39,5.39,0,0,1,.85.38c.25.14.49.29.71.44l.35-.75h1.07l.87,4.23-1.07.32a7.92,7.92,0,0,0-1-1.46,6.75,6.75,0,0,0-1.19-1,5.22,5.22,0,0,0-1.25-.64,3.76,3.76,0,0,0-1.22-.22,2,2,0,0,0-1.3.37,1.2,1.2,0,0,0-.44,1A1.07,1.07,0,0,0,394.3,24.39Z"/><path class="cls-1" d="M412,33.19a6.64,6.64,0,0,0,.81-.14,1.29,1.29,0,0,0,.5-.22.72.72,0,0,0,.25-.36,2,2,0,0,0,.07-.55V25a2.43,2.43,0,0,0-.14-.89,1.52,1.52,0,0,0-1-.94,2.44,2.44,0,0,0-.75-.11,4.08,4.08,0,0,0-1.36.22,5.29,5.29,0,0,0-1.25.64v8a2,2,0,0,0,.07.55.72.72,0,0,0,.25.36,1.3,1.3,0,0,0,.49.22,6.32,6.32,0,0,0,.82.14v1.22h-7.67V33.19a6.3,6.3,0,0,0,.8-.14,1.3,1.3,0,0,0,.49-.22.77.77,0,0,0,.25-.36,1.78,1.78,0,0,0,.07-.55V25.05a1,1,0,0,0-.17-.67.69.69,0,0,0-.56-.2h-.9V23.05l4.43-2.43h1.62V22a10.34,10.34,0,0,1,1-.54A9.45,9.45,0,0,1,411.2,21a8.55,8.55,0,0,1,1.15-.31,5.9,5.9,0,0,1,1.14-.12,8.06,8.06,0,0,1,1.12.08,4.74,4.74,0,0,1,1.1.29,3.92,3.92,0,0,1,1,.56,3.2,3.2,0,0,1,.77.89,8.67,8.67,0,0,1,1.1-.71,9.91,9.91,0,0,1,1.26-.58,9.45,9.45,0,0,1,1.32-.39,6,6,0,0,1,1.27-.14,7.76,7.76,0,0,1,1.61.17,3.67,3.67,0,0,1,1.48.67,3.61,3.61,0,0,1,1.07,1.38,5.43,5.43,0,0,1,.41,2.29v6.78a2,2,0,0,0,.07.55.72.72,0,0,0,.25.36,1.3,1.3,0,0,0,.49.22,6.32,6.32,0,0,0,.82.14v1.22h-7.67V33.19a6.3,6.3,0,0,0,.8-.14,1.23,1.23,0,0,0,.49-.22.74.74,0,0,0,.24-.36,2,2,0,0,0,.07-.55V25a1.88,1.88,0,0,0-.52-1.49,2,2,0,0,0-1.33-.45,4,4,0,0,0-1.4.25A6.06,6.06,0,0,0,418,24a6.88,6.88,0,0,1,.09,1.13v6.78a1.78,1.78,0,0,0,.07.55.77.77,0,0,0,.25.36,1.3,1.3,0,0,0,.49.22,6.3,6.3,0,0,0,.8.14v1.22H412Z"/><path class="cls-1" d="M434.27,27.35v.36a7.24,7.24,0,0,0,.84,3.87,3,3,0,0,0,2.75,1.31,3.89,3.89,0,0,0,2.38-.83,6.53,6.53,0,0,0,1.88-2.38l1.59.9a10.28,10.28,0,0,1-1.06,1.74,6.66,6.66,0,0,1-1.36,1.35,5.83,5.83,0,0,1-1.75.87,7.55,7.55,0,0,1-2.23.3,9.11,9.11,0,0,1-3.21-.53,6.79,6.79,0,0,1-2.39-1.48,6.41,6.41,0,0,1-1.5-2.26,7.67,7.67,0,0,1-.52-2.86,7.57,7.57,0,0,1,.52-2.84,6.69,6.69,0,0,1,1.46-2.25,6.58,6.58,0,0,1,2.26-1.48,7.76,7.76,0,0,1,2.91-.53,8,8,0,0,1,2.77.44,5.5,5.5,0,0,1,2,1.27,5.31,5.31,0,0,1,1.25,2A7.8,7.8,0,0,1,443.3,27h-9A2.83,2.83,0,0,0,434.27,27.35Zm.89-4.31a4.16,4.16,0,0,0-.77,2.06h4.72a3.12,3.12,0,0,0-.59-2,1.93,1.93,0,0,0-1.58-.73A2.17,2.17,0,0,0,435.16,23Z"/><path class="cls-1" d="M453.63,33.19a6.64,6.64,0,0,0,.81-.14,1.29,1.29,0,0,0,.5-.22.72.72,0,0,0,.25-.36,2,2,0,0,0,.07-.55V25a2.43,2.43,0,0,0-.14-.89,1.52,1.52,0,0,0-1-.94,2.44,2.44,0,0,0-.75-.11,4.08,4.08,0,0,0-1.36.22,5.29,5.29,0,0,0-1.25.64v8a2,2,0,0,0,.07.55.72.72,0,0,0,.25.36,1.3,1.3,0,0,0,.49.22,6.32,6.32,0,0,0,.82.14v1.22h-7.67V33.19a6.3,6.3,0,0,0,.8-.14,1.3,1.3,0,0,0,.49-.22.77.77,0,0,0,.25-.36,1.78,1.78,0,0,0,.07-.55V25.05a1,1,0,0,0-.17-.67.69.69,0,0,0-.56-.2h-.9V23.05l4.43-2.43h1.62V22a10.34,10.34,0,0,1,1-.54,9.45,9.45,0,0,1,1.09-.46,8.55,8.55,0,0,1,1.15-.31,5.9,5.9,0,0,1,1.14-.12,7.76,7.76,0,0,1,1.61.17,3.67,3.67,0,0,1,1.48.67,3.61,3.61,0,0,1,1.07,1.38,5.43,5.43,0,0,1,.41,2.29v6.78a1.78,1.78,0,0,0,.07.55.77.77,0,0,0,.25.36,1.3,1.3,0,0,0,.49.22,6.3,6.3,0,0,0,.8.14v1.22h-7.67Z"/><path class="cls-1" d="M470.63,34.51l-.8.15-.85.11q-.43,0-.84,0a8.33,8.33,0,0,1-1.85-.19,3.5,3.5,0,0,1-1.4-.64,2.91,2.91,0,0,1-.89-1.22,5,5,0,0,1-.31-1.89v-8h-1.59V21.78A6.73,6.73,0,0,0,465,19.85a7.58,7.58,0,0,0,1.51-3.17h1.65v4.37h3.19v1.85h-3.19v8a2.2,2.2,0,0,0,.42,1.53,1.51,1.51,0,0,0,1.14.44,4.83,4.83,0,0,0,.83-.08,4.15,4.15,0,0,0,.79-.21v1.77A7.07,7.07,0,0,1,470.63,34.51Z"/><path class="cls-2" d="M62.23,43.65A21.68,21.68,0,1,0,43.06,55.25a21.47,21.47,0,0,0,10.46-2.71,8.17,8.17,0,1,0,8.7-8.9ZM34.74,38.18a13.22,13.22,0,1,1,25.19,5.63,8.22,8.22,0,0,0-6.27,6.39A13.06,13.06,0,0,1,48,51.51,13.28,13.28,0,0,1,34.74,38.18Z"/><path class="cls-2" d="M94.61,56.29,93,56.35l-.09-.61.85-.17v-5c0-.91-.42-1.31-1.12-1.31a4.21,4.21,0,0,0-1.85.78l-.52.33v5.18l1,.17-.09.61-1.66-.05-1.83.05-.09-.61,1-.17V44.88L88,45l-3.54-.05V55.51l2,.23-.09.61-2.83-.05-2.93.05-.09-.61,2.09-.23V44.93L80,45l-.8,2.18h-.68V44.08l5,0,4.29,0,1.87-.21h.59v5.65l2.55-1.66c2.23,0,2.6.84,2.6,3.05v4.64l1.31.17-.09.61Z"/><path class="cls-2" d="M99.14,51.88c0,2,1.06,3.4,2.9,3.4a4.53,4.53,0,0,0,2.18-.73l.28.66a10.62,10.62,0,0,1-3.05,1.38,4,4,0,0,1-4-4.24c0-2.58,1.55-4,3.94-4.48,2.3,0,3.09,1.45,3.09,3.28v.73Zm3.51-.87c0-1.34-.26-2.27-1.61-2.27-1.06,0-1.74,1-1.88,2.44Z"/><path class="cls-2" d="M116.52,44.71l.09-.61,2.23.05,2-.05.09.61-1.48.23v7.12c0,2.27-.92,3.79-4.4,4.59-3.44,0-4.66-1.85-4.66-4.62V44.93l-1.57-.23.09-.61,2.41.05,2.39-.05.09.61-1.48.23v7.35c0,2.16.92,3.4,2.91,3.4,1.81,0,2.83-1.22,2.83-3.45V44.93Z"/><path class="cls-2" d="M123.32,56.29l-2,.05-.09-.61,1.22-.17V49.19l-1.22.1-.09-.61,2.09-.54.75-.05.09,1.47,2.58-1.69c2.23,0,2.6.75,2.6,2.84v4.85l1.33.17-.09.61-2-.05-1.67.05-.09-.61.87-.17v-5c0-.91-.4-1.31-1.15-1.31a3.54,3.54,0,0,0-1.81.78l-.52.35v5.16l1,.17-.09.61Z"/><path class="cls-2" d="M133.32,56.29l-2,.05-.09-.61,1.22-.17V49.19l-1.22.1-.09-.61,2.09-.54.87-.07v7.49l1.31.17-.09.61Zm-.87-12,1.26-.09.49.09.09,1-.19.84-1.24.1-.47-.1-.1-1Z"/><path class="cls-2" d="M140.31,55.21l2.11-6.32-.8-.17.09-.61,1.54.05,1.45-.05.09.61-1.12.17-2.86,7.17-1.27.52-3-7.69-1.08-.17.09-.61,2,.05,1.83-.05.09.61-1.15.17,1.9,5.11Z"/><path class="cls-2" d="M146.49,51.88c0,2,1.06,3.4,2.9,3.4a4.53,4.53,0,0,0,2.18-.73l.28.66a10.62,10.62,0,0,1-3.05,1.38,4,4,0,0,1-4-4.24c0-2.58,1.55-4,3.94-4.48,2.3,0,3.09,1.45,3.09,3.28v.73ZM150,51c0-1.34-.26-2.27-1.61-2.27-1.06,0-1.74,1-1.88,2.44Z"/><path class="cls-2" d="M155.71,50.4l2-2.44h1.4V49.7h-1.29a4,4,0,0,0-1.66,1.24l-.35.42v4.15l1.83.17-.09.66L155,56.29l-2,.05-.09-.61,1.22-.17V49.19l-1.22.1-.09-.61,2.09-.54.7-.05Z"/><path class="cls-2" d="M164.59,49.1a2.72,2.72,0,0,0-1.33-.38c-.68,0-1.33.37-1.33,1s.44.91,1.22,1.31l1.34.68c1.17.59,1.64,1.26,1.64,2.25,0,1.57-1.27,2.16-3.28,2.6a6,6,0,0,1-2.65-.79l-.33-2H161l.59,1.45a2.63,2.63,0,0,0,1.43.44,1.27,1.27,0,0,0,1.4-1.33c0-.68-.37-1-1.27-1.45l-1.38-.72a2.36,2.36,0,0,1-1.47-2c0-1.22,1.13-1.9,3.16-2.34a4.67,4.67,0,0,1,2.46.79V50.4H165Z"/><path class="cls-2" d="M169.41,56.29l-2,.05-.09-.61,1.22-.17V49.19l-1.22.1-.09-.61,2.09-.54.87-.07v7.49l1.31.17-.09.61Zm-.87-12,1.26-.09.49.09.09,1-.19.84-1.24.1-.47-.1-.1-1Z"/><path class="cls-2" d="M178.06,60.43V58.68h1.5L181.29,56l-.7.21-2.93-7.35H175v5.32c0,.51.19,1,.92,1a3.67,3.67,0,0,0,1.54-.49l.3.59-2.2,1.2c-2,0-2.22-.7-2.22-2.27v-5.2h-1.69v-.3l.61-.61h1.13V47.08l1.13-1.13H175v2.18h5.5l.09.59-1.15.17L181.37,54l.14,1.2,2.16-6.32-.8-.17.09-.61,1.54.05,1.45-.05.09.61-1.12.17L182.09,56l-2,4.4Z"/><path class="cls-2" d="M197.53,52.05c0,2.6-1.59,4.1-4.29,4.54a3.89,3.89,0,0,1-3.89-4.17c0-2.62,1.59-4.1,4.29-4.55A3.91,3.91,0,0,1,197.53,52.05Zm-3.86,3.68c1.4,0,2.11-1.43,2.11-3.31,0-2.22-1.06-3.7-2.58-3.7s-2.11,1.43-2.11,3.33S192.12,55.73,193.67,55.73Z"/><path class="cls-2" d="M201.45,48.3h2.18v.82h-2.18v6.44l2,.12-.09.66-2.7-.05-2,.05-.09-.61,1.22-.17V49.12h-1.54v-.3l.52-.61h1V48a3.38,3.38,0,0,1,1-2.44l1.47-1.66h2.2v1.4h-2.27l-.33.47a3.28,3.28,0,0,0-.37,2Z"/><path class="cls-2" d="M217,56.35l-2.83-.05-2.93.05-.09-.61,2.09-.23V44.93l-2.62,0-.8,2.22h-.68V44.1l5,.05,5-.05v3.09h-.68l-.8-2.22-2.62,0V55.51l2,.23Z"/><path class="cls-2" d="M220.08,51.88c0,2,1.06,3.4,2.9,3.4a4.53,4.53,0,0,0,2.18-.73l.28.66a10.62,10.62,0,0,1-3.05,1.38,4,4,0,0,1-4-4.24c0-2.58,1.55-4,3.94-4.48,2.3,0,3.09,1.45,3.09,3.28v.73Zm3.51-.87c0-1.34-.26-2.27-1.61-2.27-1.06,0-1.74,1-1.88,2.44Z"/><path class="cls-2" d="M229.38,55.73l-.09.61-1.36-.05-1.8.05-.09-.61,1.22-.17,2.58-3.18-2.53-3.47-1.08-.17.09-.63,2,.05,1.66-.05.09.63-.68.17,1.29,1.94.14.45,1.66-2.39-.85-.17.09-.63,1.36.05,1.8-.05.09.63-1.26.17-2.3,2.79,2.74,3.86,1.08.17-.09.61-2-.05-1.66.05-.09-.61.72-.17-1.55-2.25-.14-.4-1.85,2.65Z"/><path class="cls-2" d="M239.27,47.87c2.2,0,2.76.56,2.76,2.77v3.42a2.13,2.13,0,0,0,.3,1.31h.87l.07.61-2.25.44-.54-1.34-2.08,1.52a2.27,2.27,0,0,1-2.56-2.23,2.56,2.56,0,0,1,.61-1.6l3.93-1.31v-.87c0-1-.09-1.68-1-1.68a4.18,4.18,0,0,0-1.43.32l-.3,1.38h-1.5V49.26Zm1.1,4.27-2.53,1a1.33,1.33,0,0,0-.35,1c0,.89.51,1.2,1,1.2a2.07,2.07,0,0,0,1.13-.45l.73-.51Z"/><path class="cls-2" d="M248.67,49.1a2.72,2.72,0,0,0-1.33-.38c-.68,0-1.33.37-1.33,1s.44.91,1.22,1.31l1.34.68c1.17.59,1.64,1.26,1.64,2.25,0,1.57-1.27,2.16-3.28,2.6a6,6,0,0,1-2.65-.79l-.33-2h1.12l.59,1.45a2.63,2.63,0,0,0,1.43.44,1.27,1.27,0,0,0,1.4-1.33c0-.68-.37-1-1.27-1.45l-1.38-.72a2.36,2.36,0,0,1-1.47-2c0-1.22,1.13-1.9,3.16-2.34a4.67,4.67,0,0,1,2.46.79V50.4h-.92Z"/><path class="cls-2" d="M259,47.87c2.2,0,2.76.56,2.76,2.77v3.42a2.13,2.13,0,0,0,.3,1.31h.87L263,56l-2.25.44-.54-1.34-2.08,1.52a2.27,2.27,0,0,1-2.56-2.23,2.56,2.56,0,0,1,.61-1.6l3.93-1.31v-.87c0-1-.09-1.68-1-1.68a4.18,4.18,0,0,0-1.43.32l-.3,1.38h-1.5V49.26Zm1.1,4.27-2.53,1a1.33,1.33,0,0,0-.35,1c0,.89.51,1.2,1,1.2a2.07,2.07,0,0,0,1.13-.45l.73-.51Z"/><path class="cls-2" d="M262.92,49.12v-.3l.61-.61h1.13V47.08l1.13-1.13h.45v2.39h2.63v.79h-2.62v5.11c0,.51.19,1,.92,1a2.94,2.94,0,0,0,1.38-.42l.3.59-2,1.13c-2,0-2.22-.7-2.22-2.27v-5.2Z"/><path class="cls-2" d="M276.25,52.25l-1.13,3.26,1.52.23-.09.61-2.09-.05-1.87.05-.09-.61,1.36-.19,4.33-11.31,1-.3,4.55,11.6,1.36.19-.09.61-2.41-.05-2.3.05-.09-.61,1.48-.23-1.19-3.26Zm2.32-5.43-.12-.94-1.92,5.55h3.72Z"/><path class="cls-2" d="M292.56,54.06a2.85,2.85,0,0,0,.21,1.31h.87l.07.61-2.25.44L291,55l-2.53,1.59c-2.3,0-2.69-.82-2.69-2.84V49.19l-1.22.09-.09-.68,2.09-.45.87-.07v5.81c0,.91.38,1.31,1.24,1.31a4.24,4.24,0,0,0,1.9-.87l.35-.23v-4.9l-1,.09-.09-.68,1.92-.45.87-.07Z"/><path class="cls-2" d="M299.2,49.1a2.72,2.72,0,0,0-1.33-.38c-.68,0-1.33.37-1.33,1s.44.91,1.22,1.31l1.34.68c1.17.59,1.64,1.26,1.64,2.25,0,1.57-1.27,2.16-3.28,2.6a6,6,0,0,1-2.65-.79l-.33-2h1.12l.59,1.45a2.63,2.63,0,0,0,1.43.44,1.27,1.27,0,0,0,1.4-1.33c0-.68-.37-1-1.27-1.45l-1.38-.72a2.36,2.36,0,0,1-1.47-2c0-1.22,1.13-1.9,3.16-2.34a4.67,4.67,0,0,1,2.46.79V50.4h-.92Z"/><path class="cls-2" d="M301.31,49.12v-.3l.61-.61h1.13V47.08l1.13-1.13h.45v2.39h2.63v.79h-2.62v5.11c0,.51.19,1,.92,1a2.94,2.94,0,0,0,1.38-.42l.3.59-2,1.13c-2,0-2.22-.7-2.22-2.27v-5.2Z"/><path class="cls-2" d="M310.37,56.29l-2,.05-.09-.61,1.22-.17V49.19l-1.22.1-.09-.61,2.09-.54.87-.07v7.49l1.31.17-.09.61Zm-.87-12,1.26-.09.49.09.09,1-.19.84-1.24.1-.47-.1-.1-1Z"/><path class="cls-2" d="M315.34,56.29l-2,.05-.09-.61,1.22-.17V49.19l-1.22.1-.09-.61,2.09-.54.75-.05.09,1.47,2.58-1.69c2.23,0,2.6.75,2.6,2.84v4.85l1.33.17-.09.61-2-.05-1.68.05-.09-.61.87-.17v-5c0-.91-.4-1.31-1.15-1.31a3.54,3.54,0,0,0-1.81.78l-.52.35v5.16l1,.17-.09.61Z"/></svg>